<?xml version="1.0" encoding="UTF-8"?>
<svg id="Isolation_Mode" xmlns="http://www.w3.org/2000/svg" version="1.1" viewBox="0 0 750.2 246.8">
  <!-- Generator: Adobe Illustrator 30.2.0, SVG Export Plug-In . SVG Version: 2.1.1 Build 105)  -->
  <defs>
    <style>
      .st0 {
        fill: none;
      }

      .st1, .st2 {
        fill: #e53a41;
      }

      .st3 {
        fill: #1ba3b6;
      }

      .st2 {
        fill-rule: evenodd;
      }
    </style>
  </defs>
  <path class="st0" d="M366,7.88c-22.43,0-40.76,18.33-40.76,40.88s18.33,40.76,40.76,40.76,40.76-18.33,40.76-40.76-18.33-40.88-40.76-40.88ZM366,72.75c-11.09-9.53-22.19-19.05-22.19-28.7s4.94-9.65,11.09-9.65,8.2,2.41,11.09,7.24c2.77-4.82,5.43-7.24,11.09-7.24s11.09,4.34,11.09,9.65c0,9.65-11.09,19.17-22.19,28.7h0Z"/>
  <path class="st1" d="M377.09,34.28c-5.67,0-8.32,2.41-11.09,7.24-2.89-4.82-5.67-7.24-11.09-7.24s-11.09,4.34-11.09,9.65c0,9.65,11.09,19.17,22.19,28.7,11.09-9.53,22.19-19.05,22.19-28.7s-4.94-9.65-11.09-9.65h0Z"/>
  <path class="st2" d="M43.78,140.64c-7.24-4.22-11.09-12.54-11.09-15.31-.36-5.19,1.69-17.49,21.95-15.56,0,0,19.41,2.05,27.86,20.98v-25.44c-14.83-11.94-37.26-11.94-37.26-11.94C21.71,93.37.37,109.05.73,129.67c.36,18.21,7.6,29.79,22.31,40.64,5.31,4.22,12.06,8.68,19.78,12.66,11.46,6.99,15.68,14.47,15.68,22.31.24,10.85-8.92,24.84-29.06,24.84,0,0-20.14,0-28.46-21.22v27.01c14.59,10.97,37.02,10.97,37.02,10.97,26.89,0,54.14-21.22,53.18-50.17,0-10.25-3.74-19.17-9.04-26.53-8.8-12.3-25.57-21.1-38.35-29.54h0Z"/>
  <path class="st2" d="M221.77,214.08v-81.28c0-30.63-21.71-39.19-40.64-39.19s-33.89,17.49-37.38,25.93V38.26c0-32.8-17.12-33.4-25.57-33.4h-23.52c13.51,6.63,13.51,29.91,13.51,29.91v175.82c0,32.68,17.49,33.4,25.69,33.4h23.52c-13.63-6.75-13.63-29.91-13.63-29.91v-81.28c6.63-14.23,21.1-14.23,21.1-14.23,11.82,0,21.34,9.89,21.34,20.98-.24,29.67-.24,71.03-.24,71.03,0,32.68,17.49,33.4,25.93,33.4h23.52c-13.63-6.75-13.63-29.91-13.63-29.91h0Z"/>
  <path class="st2" d="M684.72,213.48v-86.46c0-33.28-17.61-33.28-25.81-33.28h-23.52c13.63,6.03,13.63,29.67,13.63,29.67v88.51c.48,31.59,17.36,32.32,25.44,32.32h23.64c-13.39-6.99-13.39-30.51-13.39-30.51h0v-.24Z"/>
  <path class="st2" d="M660.12,85.41c10.01,0,17.85-8.08,17.85-17.85s-7.84-17.49-17.85-17.49-18.21,7.72-18.21,17.49,7.96,17.85,18.21,17.85h0Z"/>
  <path class="st2" d="M616.46,214.57V38.63c0-32.92-17.12-32.68-25.57-32.68h-23.52c13.63,5.79,13.63,29.06,13.63,29.06v70.67c-2.17-3.01-5.06-5.31-8.44-7.11-2.89-1.45-6.03-2.53-9.04-3.14-4.22-.84-8.56-.96-13.02-.48-2.89.36-5.79.84-8.56,1.69-2.77.72-5.43,1.93-8.08,3.14s-5.06,2.77-7.6,4.46-4.7,3.62-6.99,5.79c-2.29,2.17-4.34,4.46-6.27,6.87-2.05,2.53-3.86,5.19-5.43,7.96-1.69,2.89-3.26,6.03-4.58,8.92-1.33,3.26-2.65,6.63-3.62,10.01-1.09,3.62-2.05,7.24-2.65,10.85-.72,3.86-1.21,7.84-1.45,11.7-.24,3.14-.36,6.39-.36,9.53,0,35.69,17.85,78.75,62.22,69.82h.12c1.93-.48,15.8-4.1,24.48-19.41.96,8.08,3.74,15.44,10.13,17.97h39.31c-12.42-7.96-14.71-24.24-14.71-29.54h.36l-.36-.12h0ZM580.89,133.89v85.14c-6.03,6.63-10.97,8.32-13.26,9.04-3.86.84-7.36,1.45-10.49,1.21-25.57-1.09-23.64-40.4-23.64-54.02s0-6.75,0-10.25,0-7.11.24-10.61c.12-3.5.36-7.11.6-10.61.24-3.38.72-6.75,1.33-10.13.48-3.14,1.21-6.15,2.17-9.04.84-2.65,1.93-5.19,3.26-7.6,1.09-2.17,2.65-4.1,4.46-5.67,1.69-1.45,3.74-2.65,5.91-3.26,2.05-.48,3.98-.6,6.15-.36,2.65.36,5.06,1.21,7.48,2.41,2.29,1.09,4.34,2.65,6.39,4.34,2.41,2.29,4.46,4.82,6.15,7.72.6,1.09,1.21,2.29,1.69,3.38.24.6.6,1.21.84,1.93.12.36.24.6.36.96,0,.24.36.72.36.96v4.46h0Z"/>
  <path class="st2" d="M311.85,218.55c-3.62,3.14-8.8,10.49-24.6,10.49s-15.07-8.8-15.07-18.33c0-36.54,31.23-43.89,39.67-53.78v61.62h0ZM362.98,243.99c-15.07-9.41-16.04-29.67-16.04-29.67v-82.36c0-19.78-21.95-38.59-44.86-38.59,0,0-22.43,0-36.54,13.63v26.53c10.01-22.91,28.22-22.91,28.22-22.91,6.03,0,12.78.96,17.12,5.43,1.09,1.09,1.93,2.41,2.53,3.74,1.57,3.62,1.69,7.72,1.57,11.58,0,3.98-.84,7.96-3.01,11.46-9.41,15.68-80.43,21.46-69.94,75.61,4.22,21.46,18.33,27.62,36.54,27.62s29.18-11.46,33.89-20.38c0,0,3.5,17.12,11.82,18.21h38.83l-.12.12Z"/>
  <path class="st2" d="M441,218.55c-3.62,3.14-8.8,10.49-24.6,10.49s-15.07-8.8-15.07-18.33c0-36.54,31.23-43.89,39.67-53.78v61.62h0ZM492.13,243.99c-15.07-9.41-16.04-29.67-16.04-29.67v-82.36c0-19.78-21.95-38.59-44.86-38.59,0,0-22.43,0-36.54,13.63v26.53c10.01-22.91,28.22-22.91,28.22-22.91,6.03,0,12.78.96,17.12,5.43,1.09,1.09,1.93,2.41,2.53,3.74,1.57,3.62,1.69,7.72,1.57,11.58,0,3.98-.84,7.96-3.01,11.46-9.41,15.68-80.43,21.46-69.94,75.61,4.22,21.46,18.33,27.62,36.54,27.62s29.18-11.46,33.89-20.38c0,0,3.5,17.12,11.82,18.21h38.83l-.12.12Z"/>
  <g>
    <path class="st3" d="M366-.2c-27.01,0-48.96,21.95-48.96,48.96s21.95,48.96,48.96,48.96,48.96-21.95,48.96-48.96S393.01-.2,366-.2ZM366,89.51c-22.43,0-40.76-18.33-40.76-40.76s18.33-40.88,40.76-40.88,40.76,18.33,40.76,40.88-18.33,40.76-40.76,40.76Z"/>
    <path class="st3" d="M722.7,122.31h22.91c1.09,0,2.05-.36,2.77-1.09s1.09-1.57,1.09-2.65-.36-1.93-1.09-2.65-1.57-1.09-2.77-1.09h-22.91c-.96,0-1.93-.12-2.53-.36-.84-.48-1.45-.96-2.17-1.57s-1.09-1.21-1.57-2.05c-.24-.72-.48-1.57-.48-2.65s.12-1.69.36-2.53c.48-.84.96-1.45,1.57-2.17s1.21-1.09,2.05-1.45c.72-.24,1.69-.48,2.65-.48h22.91c1.09,0,2.05-.36,2.77-1.09,0,0,.24-.36.36-.36.36-.48.72-1.09.72-2.17s-.36-1.93-1.09-2.65-1.57-1.09-2.77-1.09h-22.91c-2.05,0-3.62.36-5.67,1.09-1.93.84-3.38,1.93-4.34,3.01-1.21,1.21-2.29,2.77-3.01,4.34-.72,1.33-1.09,3.26-1.09,5.67s.48,4.7,1.45,6.63c.84,1.45,1.93,2.77,3.01,3.86-1.09,1.09-2.17,2.41-3.14,3.74-.96,2.05-1.33,3.98-1.33,6.51s.36,3.62,1.21,4.94c.36.72.72,1.33,1.09,1.93-.48.24-.72.48-.96.84-.72.72-1.09,1.33-1.09,2.65s0,1.69,1.09,2.65c.84,1.09,2.17,1.09,2.65,1.09h33.04c1.09,0,2.05-.36,2.77-1.09s1.09-1.57,1.09-2.65-.48-1.57-.72-2.17l-.36-.48c-.72-.72-1.57-1.09-2.77-1.09h-23.15c-1.93-.12-3.38-.84-4.46-2.05-1.21-1.21-1.93-2.77-1.93-4.58s.6-3.26,1.93-4.58c1.09-1.09,2.89-1.93,4.7-2.05h.12v-.12h0Z"/>
    <path class="st3" d="M715.11,181.52c1.69,1.93,3.74,3.38,6.39,4.34,2.53.96,5.06,1.57,7.84,1.57s5.43-.48,7.96-1.57c2.53-1.09,4.46-2.53,6.27-4.34,2.05-2.05,3.26-4.1,4.34-6.51.96-2.29,1.33-4.7,1.33-7.72s-.48-5.79-1.57-7.96c-.84-2.41-2.41-4.46-4.34-6.51-1.57-1.57-3.62-3.01-6.39-4.34-2.53-.96-4.82-1.33-7.84-1.33s-5.43.48-7.72,1.33c-2.53,1.21-4.82,2.89-6.51,4.46-1.57,1.57-3.01,3.62-4.34,6.27-1.09,2.41-1.57,4.7-1.57,7.72s.6,5.43,1.69,8.08c.84,2.29,2.53,4.34,4.34,6.27v.24h.12ZM717.4,162.35c.6-1.33,1.57-2.77,3.01-4.1.72-.96,2.17-1.69,3.98-2.65,1.45-.6,3.14-.96,4.94-.96s3.38.36,4.82.96c1.57.72,3.01,1.57,3.98,2.65,1.33,1.33,2.29,2.65,2.77,3.98.6,1.45.96,3.14.96,4.94s-.36,3.38-.96,4.82h0c-.48,1.45-1.45,2.89-2.65,3.98-1.21,1.21-2.65,2.29-3.98,2.89-2.77,1.21-6.75,1.33-9.89,0-1.57-.72-3.14-1.69-4.1-3.01-1.09-.84-2.17-2.41-2.77-3.98-.6-1.45-.96-3.14-.96-4.82s.36-3.5.96-4.94l-.24.24h.12,0Z"/>
    <path class="st3" d="M746.34,193.34c-.84-1.57-1.69-2.65-2.77-3.14-.6-.48-1.69-1.21-2.65-1.21s-1.93.36-2.77,1.33c-.48.72-.72,1.57-.72,2.41s.36,2.05.84,2.53c1.09,1.21,2.29,2.65,2.77,4.22.6,1.45.96,3.01.96,4.82s-.36,3.38-.96,4.94c-.72,1.69-1.57,2.89-2.77,3.86-.96,1.09-2.29,2.05-3.98,2.77-3.38,1.33-6.75,1.33-10.13,0-1.69-.72-3.01-1.57-4.1-3.01-.96-.84-1.93-2.17-2.65-3.74-.6-1.57-.96-3.38-.96-5.06s.24-3.26.96-4.94c.36-1.21,1.09-2.53,2.29-4.1.72-.6,1.09-1.45,1.09-2.65s-.36-1.69-.72-2.29c-.6-.84-1.45-1.33-2.65-1.33s-2.05.72-2.77,1.33c-.72.72-1.69,1.69-2.53,2.89-.96,1.33-1.69,3.01-2.41,4.7-.6,2.05-.96,3.98-.96,6.03s0,0,0,0c.24,3.01.72,5.79,1.69,8.08,1.09,2.53,2.53,4.46,4.34,6.27,2.05,2.05,3.98,3.38,6.39,4.34,2.77.96,5.31,1.57,7.84,1.57s5.19-.48,8.08-1.57c2.29-.84,4.46-2.41,6.39-4.34s3.26-3.98,4.1-6.51c.96-2.53,1.57-5.06,1.57-7.72s-.36-4.22-.96-6.51c-.48-1.57-1.33-3.26-2.17-4.46v.48h.36Z"/>
    <path class="st3" d="M729.21,230.36c-4.58,0-8.32,3.74-8.32,8.32s3.74,8.32,8.32,8.32,8.32-3.74,8.32-8.32-3.74-8.32-8.32-8.32Z"/>
  </g>
</svg>